<?xml version="1.0" standalone="no"?>
<!DOCTYPE svg PUBLIC "-//W3C//DTD SVG 20010904//EN"
 "http://www.w3.org/TR/2001/REC-SVG-20010904/DTD/svg10.dtd">
<svg version="1.0" xmlns="http://www.w3.org/2000/svg"
 width="840.000000pt" height="880.000000pt" viewBox="0 0 840.000000 880.000000"
 preserveAspectRatio="xMidYMid meet">
<metadata>
Created by potrace 1.16, written by Peter Selinger 2001-2019
</metadata>
<g transform="translate(0.000000,880.000000) scale(0.100000,-0.100000)"
fill="#000000" stroke="none">
<path d="M3895 8389 c-823 -69 -1562 -362 -2207 -877 -172 -137 -465 -430
-602 -602 -131 -164 -289 -400 -387 -575 -578 -1038 -658 -2310 -214 -3415
443 -1103 1340 -1948 2465 -2320 1050 -347 2223 -237 3185 299 326 182 618
403 891 675 398 399 685 834 892 1351 532 1336 303 2849 -604 3985 -140 174
-432 467 -604 604 -611 487 -1301 774 -2070 862 -155 18 -598 26 -745 13z
m705 -584 c636 -74 1238 -327 1745 -731 141 -112 416 -387 529 -529 405 -507
655 -1105 733 -1755 23 -199 23 -582 -1 -780 -79 -654 -326 -1247 -732 -1755
-113 -142 -388 -417 -529 -529 -869 -692 -1996 -923 -3060 -630 -437 121 -872
344 -1230 630 -143 114 -418 389 -529 529 -406 508 -654 1104 -733 1755 -23
198 -23 582 0 780 79 652 326 1245 733 1755 113 141 388 416 529 529 544 434
1185 687 1890 746 148 12 489 4 655 -15z"/>
<path d="M3255 5812 c-66 -23 -108 -54 -144 -105 -48 -70 -53 -103 -49 -327 3
-195 4 -207 28 -253 61 -121 203 -181 335 -142 46 13 70 28 116 74 80 80 89
115 89 341 0 226 -9 261 -89 341 -85 85 -179 108 -286 71z"/>
<path d="M4966 5814 c-71 -23 -159 -112 -180 -184 -23 -76 -23 -384 0 -460 23
-78 109 -162 189 -185 73 -22 139 -15 211 20 62 30 98 69 131 142 23 51 24 58
21 265 -3 204 -4 215 -28 261 -61 121 -213 183 -344 141z"/>
<path d="M2115 4780 c-57 -37 -156 -144 -181 -195 -24 -50 -24 -52 -14 -195
32 -453 178 -870 438 -1245 255 -368 616 -673 1001 -845 469 -210 971 -241
1446 -89 556 177 1032 570 1349 1111 189 324 297 677 327 1070 10 140 10 141
-15 192 -25 51 -124 159 -181 196 -17 11 -42 20 -57 20 -47 0 -187 -128 -228
-210 -12 -24 -19 -71 -24 -155 -24 -439 -124 -768 -324 -1070 -88 -133 -282
-328 -411 -414 -307 -204 -628 -295 -1041 -295 -527 0 -935 156 -1260 483
-323 325 -484 729 -516 1296 -5 84 -12 131 -24 155 -41 82 -181 210 -228 210
-15 0 -40 -9 -57 -20z"/>
</g>
</svg>
