<?xml version="1.0" encoding="UTF-8"?>
<!DOCTYPE svg PUBLIC "-//W3C//DTD SVG 1.1//EN" "http://www.w3.org/Graphics/SVG/1.1/DTD/svg11.dtd">
<!-- Creator: CorelDRAW 2019 (64-Bit) -->
<svg xmlns="http://www.w3.org/2000/svg" xml:space="preserve" width="131.341mm" height="131.341mm" version="1.1" style="shape-rendering:geometricPrecision; text-rendering:geometricPrecision; image-rendering:optimizeQuality; fill-rule:evenodd; clip-rule:evenodd"
viewBox="0 0 13134.1 13134.1"
 xmlns:xlink="http://www.w3.org/1999/xlink">
 <defs>
  <style type="text/css">
   <![CDATA[
    .fil1 {fill:black}
    .fil0 {fill:black;fill-rule:nonzero}
   ]]>
  </style>
 </defs>
 <g id="Слой_x0020_1">
  <metadata id="CorelCorpID_0Corel-Layer"/>
  <g id="_2296197166576">
   <path class="fil0" d="M6624.95 172.9l6497.02 6537.63c-2195.4,2182.63 -4391.67,4364.4 -6587.5,6546.6 -2182.63,-2195.4 -4364.62,-4391.46 -6546.6,-6587.51 2195.62,-2182.41 4391.67,-4364.39 6587.5,-6546.59l49.58 49.87zm6298.05 6537.02l-6348.24 -6387.92 -6387.92 6348.24 6348.24 6387.92 6387.92 -6348.24z"/>
   <g>
    <path class="fil1" d="M9408.68 7196.06l275.18 -2169.85 -1974.12 -749.09 -625.11 298.5c-19.3,95.46 -48.55,188.37 -86.81,277.76l473.22 -225.96 -195.37 2102.98 10.93 112.66 -1441.86 217.49 -118.34 233.4 1581.01 -238.37 182.27 1865.2 212.17 -20.9 -183.4 -1875.97 18.48 -2.9 1653.04 209.43 4.02 -32.31 249.79 2097.79 -1721.51 -397.35 -2240.16 426.77 -18.65 -3.53 201.37 -1913.45 -1.33 -11.64 -8.24 -71.69 -276.02 -544.9 38.95 344.71 -49.24 7.4 -1596.88 -247.38 9.47 -78.6 -244.67 -1929.1 1117.28 471.72 -93.26 -183.84c-30.17,-39.1 -57.5,-80.1 -83.42,-121.8l-1198.8 -506.28 288.05 2270.1 -5.42 45.15 -4.02 -0.63 -32.75 210.56 11.77 1.6 -246.09 2067.26 2192.19 411.03 2235.88 -425.79 1973.22 455.36 -282.82 -2375.54zm-1874.12 -390.28l-36.81 5.39 -8.05 -80.14 205.42 -2210.71 24.28 -11.62 1731.79 657.1 -235.16 1852.79 -1681.47 -212.81zm-2281.3 2476.66l-1727.93 -324.05 221.83 -1861.69 1621.48 251.25 73.65 -11.08 8.24 72.33 -197.27 1873.24zm429.78 -1902.82l-27.64 -54.5 -2.25 -20.1 73.35 -11.08 -43.46 85.68zm-956.39 -2396.77l941.57 1858.14 931.32 -1838.25c182.92,-213.29 294.16,-489.72 294.16,-792.27 -0.02,-672.7 -547.34,-1219.97 -1220.07,-1219.97 -672.68,0 -1219.79,547.26 -1219.79,1219.96 0,292.92 103.84,561.78 276.43,772.39l-3.62 0zm947.07 -1522.19c413.38,0 749.83,336.41 749.83,749.8 0,413.37 -336.45,749.84 -749.83,749.84 -413.38,0 -749.81,-336.47 -749.81,-749.84 0.01,-413.39 336.34,-749.8 749.81,-749.8z"/>
   </g>
  </g>
 </g>
</svg>
