<?xml version="1.0" encoding="UTF-8"?>
<!DOCTYPE svg PUBLIC "-//W3C//DTD SVG 1.1//EN" "http://www.w3.org/Graphics/SVG/1.1/DTD/svg11.dtd">
<!-- Creator: CorelDRAW 2019 (64-Bit) -->
<svg xmlns="http://www.w3.org/2000/svg" xml:space="preserve" width="131.341mm" height="131.341mm" version="1.1" style="shape-rendering:geometricPrecision; text-rendering:geometricPrecision; image-rendering:optimizeQuality; fill-rule:evenodd; clip-rule:evenodd"
viewBox="0 0 13134.1 13134.1"
 xmlns:xlink="http://www.w3.org/1999/xlink">
 <defs>
  <style type="text/css">
   <![CDATA[
    .fil1 {fill:black}
    .fil0 {fill:black;fill-rule:nonzero}
   ]]>
  </style>
 </defs>
 <g id="Слой_x0020_1">
  <metadata id="CorelCorpID_0Corel-Layer"/>
  <path class="fil0" d="M6624.95 172.9l6497.02 6537.63c-2195.4,2182.63 -4391.67,4364.4 -6587.5,6546.6 -2182.63,-2195.4 -4364.62,-4391.46 -6546.6,-6587.51 2195.62,-2182.41 4391.67,-4364.39 6587.5,-6546.59l49.58 49.87zm6298.05 6537.02l-6348.24 -6387.92 -6387.92 6348.24 6348.24 6387.92 6387.92 -6348.24z"/>
  <g id="_2296201194016">
   <g>
    <path class="fil1" d="M8711.69 3827.49l-204.86 0 0 -223.34c0,-282.85 -223.34,-513.1 -498.15,-513.1 -275.03,0 -498.15,230.25 -498.15,513.1l0 223.34 -511.27 0 0 -223.34c0,-282.85 -223.34,-513.1 -498.15,-513.1 -274.81,0 -498.15,230.25 -498.15,513.1l0 223.34 -511.27 0 0 -223.34c0,-282.85 -223.33,-513.1 -498.15,-513.1 -274.81,0 -498.15,230.25 -498.15,513.1l0 223.34 -261.69 0c-437.15,0 -793,355.84 -793,792.99l0 4477.99c0,437.15 355.85,792.99 793,792.99l4477.99 -0.07c437.36,0 792.99,-355.84 792.99,-792.99l0 -4477.99c0,-437.15 -355.99,-792.92 -792.99,-792.92zm-921.34 -223.34c0,-128.56 97.74,-233.21 218.33,-233.21 120.37,0 218.32,104.65 218.32,233.21l0 913.3c0,128.56 -97.95,233.21 -218.32,233.21 -120.52,0 -218.33,-104.65 -218.33,-233.21l0 -913.3zm-1507.57 0c0,-128.56 97.95,-233.21 218.33,-233.21 120.38,0 218.33,104.65 218.33,233.21l0 913.3c0,128.56 -97.95,233.21 -218.33,233.21 -120.38,0 -218.33,-104.65 -218.33,-233.21l0 -913.3zm-1507.78 0c0,-128.56 97.96,-233.21 218.33,-233.21 120.38,0 218.33,104.65 218.33,233.21l0 913.3c0,128.56 -97.95,233.21 -218.33,233.21 -120.37,0 -218.33,-104.65 -218.33,-233.21l0 -913.3zm4263.26 5494.32c0,180.03 -146.47,326.5 -326.5,326.5l-4478.06 0c-180.04,0 -326.51,-146.47 -326.51,-326.5l0 -4104.8 5131.07 -0.07 0 4104.87z"/>
    <path class="fil1" d="M6314.3 7423.49c103.39,103.38 270.38,103.03 373.33,0 103.39,-103.17 103.53,-270.16 0,-373.54 -18.82,-18.83 -40.12,-33.01 -62.34,-45 -28.2,-435.31 -124.46,-758.86 -124.46,-758.86 0,0 -96.12,323.76 -124.26,758.86 -22.21,11.92 -43.65,26.31 -62.69,45 -18.83,18.82 -32.86,40.12 -44.78,62.48 -434.89,27.99 -758.86,124.25 -758.86,124.25 0,0 323.9,96.26 759,124.04 11.85,22.43 26.02,43.94 45.06,62.77z"/>
    <path class="fil1" d="M6500.9 9019.7c983.46,0 1783.15,-799.91 1783.15,-1783.16 0,-983.32 -799.69,-1783.16 -1783.15,-1783.16 -983.33,0 -1783.16,799.91 -1783.16,1783.16 0,983.25 799.83,1783.16 1783.16,1783.16zm0 -3301.94c837.42,0 1518.99,681.22 1518.99,1518.99 0,837.56 -681.43,1518.99 -1518.99,1518.99 -837.56,0 -1518.99,-681.22 -1518.99,-1518.99 0,-837.63 681.78,-1518.99 1518.99,-1518.99z"/>
    <path class="fil1" d="M6500.9 8689.66c801.03,0 1453.12,-651.74 1453.12,-1452.91 0,-801.17 -651.95,-1452.91 -1453.12,-1452.91 -801.17,0 -1452.91,651.74 -1452.91,1452.91 0,800.96 651.88,1452.91 1452.91,1452.91zm0 -2773.74c728.25,0 1320.83,592.44 1320.83,1320.83 0,728.26 -592.58,1320.83 -1320.83,1320.83 -728.26,0 -1320.83,-592.43 -1320.83,-1320.83 0,-728.39 592.79,-1320.83 1320.83,-1320.83z"/>
   </g>
  </g>
 </g>
</svg>
