<?xml version="1.0" standalone="no"?>
<!DOCTYPE svg PUBLIC "-//W3C//DTD SVG 20010904//EN"
 "http://www.w3.org/TR/2001/REC-SVG-20010904/DTD/svg10.dtd">
<svg version="1.0" xmlns="http://www.w3.org/2000/svg"
 width="1920.000000pt" height="1846.000000pt" viewBox="0 0 1920.000000 1846.000000"
 preserveAspectRatio="xMidYMid meet">
<metadata>
Created by potrace 1.16, written by Peter Selinger 2001-2019
</metadata>
<g transform="translate(0.000000,1846.000000) scale(0.100000,-0.100000)"
fill="#000000" stroke="none">
<path d="M13055 18450 c-951 -43 -1872 -309 -2680 -773 -1248 -717 -2175
-1845 -2642 -3212 -62 -183 -142 -468 -153 -547 -37 -258 165 -460 447 -446
107 5 178 35 245 102 62 62 91 123 136 291 100 368 202 637 367 970 691 1390
1965 2373 3490 2694 539 114 1130 136 1695 65 943 -119 1842 -514 2600 -1143
155 -128 503 -477 630 -631 681 -823 1073 -1770 1165 -2817 17 -195 20 -630 5
-819 -131 -1653 -1049 -3131 -2469 -3976 -227 -135 -569 -299 -810 -387 -151
-56 -198 -81 -250 -132 -112 -112 -144 -290 -81 -454 32 -83 132 -183 214
-214 132 -49 216 -40 499 53 248 82 392 139 604 242 755 363 1405 905 1930
1607 606 811 1005 1802 1143 2839 71 530 69 1122 -6 1638 -237 1651 -1150
3106 -2544 4052 -541 368 -1184 657 -1820 818 -557 141 -1161 205 -1715 180z"/>
<path d="M13162 16350 c-74 -26 -114 -53 -166 -111 -82 -91 -90 -127 -94 -410
l-4 -246 -86 -23 c-357 -93 -687 -294 -892 -545 -499 -610 -515 -1520 -39
-2135 216 -279 502 -476 870 -600 138 -46 280 -78 478 -106 189 -27 289 -49
403 -90 315 -114 532 -335 610 -623 27 -100 30 -313 5 -413 -61 -245 -217
-468 -392 -560 -216 -112 -543 -173 -802 -149 -272 25 -472 105 -625 249 -150
141 -230 299 -274 537 -23 129 -48 187 -106 251 -106 116 -273 156 -438 105
-146 -46 -240 -148 -270 -296 -28 -135 49 -467 166 -714 84 -178 169 -298 313
-442 259 -259 567 -410 974 -478 l102 -17 6 -204 c4 -151 10 -222 23 -269 48
-174 140 -264 301 -292 186 -32 361 43 430 185 48 99 57 157 64 395 l6 223
120 34 c725 209 1204 809 1242 1559 6 134 -7 290 -38 434 -111 514 -443 929
-934 1171 -215 106 -439 170 -728 210 -78 11 -172 27 -209 35 -378 84 -640
277 -756 557 -105 252 -71 613 79 844 196 300 537 432 1019 395 324 -25 533
-99 680 -241 110 -106 159 -203 244 -490 58 -192 95 -270 161 -336 146 -146
416 -132 561 29 167 186 152 482 -42 872 -179 358 -416 615 -714 773 -172 92
-363 155 -575 190 l-110 18 -6 219 c-3 121 -10 234 -16 250 -44 131 -136 222
-262 259 -76 22 -212 20 -279 -4z"/>
<path d="M7813 12909 c-116 -19 -230 -84 -314 -178 -58 -64 -130 -204 -154
-301 -43 -166 -46 -210 -55 -815 -8 -551 -14 -697 -40 -950 -66 -637 -209
-1172 -431 -1617 -264 -530 -633 -902 -1159 -1167 -157 -80 -340 -164 -345
-159 -1 2 -10 40 -19 85 -64 319 -293 567 -616 665 l-75 22 -867 4 -868 3 -2
-2148 c-3 -2090 -4 -2149 -22 -2186 -60 -122 -257 -128 -323 -11 l-23 39 0
2153 0 2152 -852 0 c-543 0 -877 -4 -918 -11 -334 -53 -605 -301 -699 -638
l-26 -96 -3 -3420 c-2 -2411 0 -3454 8 -3535 21 -219 100 -389 250 -540 144
-143 322 -229 521 -250 127 -13 3631 -13 3758 0 168 18 331 86 465 196 156
126 275 344 302 550 l6 51 183 -88 c100 -48 227 -107 281 -131 l99 -43 3120 0
3120 0 80 23 c478 137 827 628 801 1127 -9 186 -64 351 -167 505 l-57 85 65
12 c384 71 687 360 790 751 33 127 38 334 9 457 -34 146 -106 298 -195 410
l-40 49 57 22 c156 58 269 133 383 250 88 92 121 139 178 251 188 374 126 820
-156 1133 l-50 54 84 53 c112 70 182 131 257 225 236 294 290 687 143 1035
-48 113 -117 214 -211 309 -117 117 -240 195 -393 249 -38 13 -86 31 -108 39
-35 13 -313 15 -2352 16 -1272 0 -2313 2 -2313 5 0 3 20 36 45 75 261 408 450
932 530 1475 66 453 79 1255 26 1665 -81 623 -300 1189 -608 1571 -89 109
-247 257 -345 322 -232 155 -533 233 -755 196z m-4008 -10553 c198 -64 342
-199 422 -396 76 -189 70 -436 -15 -622 -62 -135 -180 -257 -306 -318 -201
-95 -472 -96 -669 -1 -232 112 -377 360 -377 646 1 323 170 581 446 682 97 35
154 42 294 39 101 -3 140 -9 205 -30z"/>
</g>
</svg>
