<?xml version="1.0" standalone="no"?>
<!DOCTYPE svg PUBLIC "-//W3C//DTD SVG 20010904//EN"
 "http://www.w3.org/TR/2001/REC-SVG-20010904/DTD/svg10.dtd">
<svg version="1.0" xmlns="http://www.w3.org/2000/svg"
 width="512.000000pt" height="512.000000pt" viewBox="0 0 512.000000 512.000000"
 preserveAspectRatio="xMidYMid meet">
<metadata>
Created by potrace 1.16, written by Peter Selinger 2001-2019
</metadata>
<g transform="translate(0.000000,512.000000) scale(0.100000,-0.100000)"
fill="#db0000" stroke="none">
<path d="M1410 4679 c-626 -80 -1042 -515 -1100 -1150 -8 -86 -10 -439 -8
-1159 4 -1031 4 -1035 26 -1143 58 -274 168 -485 347 -663 179 -177 400 -287
690 -342 81 -15 194 -17 1175 -17 1012 0 1092 1 1190 19 294 51 516 161 701
346 170 170 272 363 331 633 l23 102 0 1135 c0 1050 -1 1142 -18 1223 -77 376
-282 672 -592 855 -136 79 -320 139 -500 161 -107 13 -2163 13 -2265 0z m2189
-419 c252 -26 459 -129 588 -294 66 -84 134 -220 165 -331 l23 -80 3 -1065 c2
-777 0 -1085 -8 -1140 -43 -274 -206 -502 -442 -619 -57 -28 -141 -61 -188
-73 l-85 -22 -1055 -4 c-734 -2 -1081 0 -1140 8 -229 30 -444 148 -562 308
-54 72 -112 200 -140 303 l-22 84 -4 1065 c-2 761 0 1088 8 1145 32 219 132
407 285 535 106 88 296 161 471 179 119 13 1982 13 2103 1z"/>
<path d="M3693 3899 c-113 -21 -198 -115 -210 -232 -24 -238 255 -385 436
-230 60 51 91 120 91 203 0 173 -146 292 -317 259z"/>
<path d="M2455 3614 c-135 -18 -191 -30 -266 -54 -411 -135 -712 -481 -786
-905 -23 -137 -14 -368 21 -500 117 -435 476 -764 921 -841 136 -24 369 -15
498 19 426 112 758 468 843 904 24 117 24 319 0 436 -90 461 -462 835 -914
921 -83 16 -265 27 -317 20z m318 -461 c123 -43 189 -85 287 -183 96 -96 148
-178 187 -295 24 -71 27 -95 27 -220 0 -127 -2 -147 -27 -220 -84 -240 -260
-410 -507 -486 -96 -30 -270 -33 -370 -6 -257 68 -469 279 -535 532 -91 346
98 719 435 860 103 43 172 55 300 51 96 -3 129 -8 203 -33z"/>
</g>
</svg>
